<?xml version="1.0" encoding="UTF-8"?>
<svg id="Layer_1" data-name="Layer 1" xmlns="http://www.w3.org/2000/svg" viewBox="0 0 351.37 46.61">
  <defs>
    <style>
      .cls-1, .cls-2 {
        fill: #fff;
      }

      .cls-2 {
        stroke: #fff;
        stroke-miterlimit: 10;
      }
    </style>
  </defs>
  <g>
    <path class="cls-1" d="m45.38.5v34.01L9.51.5H.5v45.61h8.9V11.31l36.09,34.8h8.79V.5h-8.9Z"/>
    <path class="cls-1" d="m54.78,46.61h-9.49l-.14-.14L9.9,12.49v34.12H0V0h9.71l35.17,33.35V0h9.9v46.61Zm-9.09-1h8.09V1h-7.9v34.67L9.31,1H1v44.61h7.9V10.13l36.79,35.48Z"/>
  </g>
  <g>
    <path class="cls-1" d="m71.1,38.22v-11.88h35.08v-7.32h-35.08V7.76h39.59V.5h-48.04v45.61h48.94v-7.89h-40.49Z"/>
    <path class="cls-1" d="m112.09,46.61h-49.94V0h49.04v8.26h-39.59v10.26h35.08v8.32h-35.08v10.88h40.49v8.89Zm-48.94-1h47.94v-6.89h-40.49v-12.88h35.08v-6.32h-35.08V7.26h39.59V1h-47.04v44.61Z"/>
  </g>
  <g>
    <path class="cls-1" d="m162.94.5l-19.59,36.82L123.52.5h-9.51l24.66,45.61h8.9L172.29.5h-9.35Z"/>
    <path class="cls-1" d="m147.87,46.61h-9.5L113.17,0h10.65l19.53,36.26L162.64,0h10.49l-25.26,46.61Zm-8.9-1h8.3L171.45,1h-8.21l-19.89,37.38L123.22,1h-8.37l24.12,44.61Z"/>
  </g>
  <g>
    <path class="cls-1" d="m187.38,38.22v-11.88h35.08v-7.32h-35.08V7.76h39.59V.5h-48.04v45.61h48.94v-7.89h-40.49Z"/>
    <path class="cls-1" d="m228.37,46.61h-49.94V0h49.04v8.26h-39.59v10.26h35.08v8.32h-35.08v10.88h40.49v8.89Zm-48.94-1h47.94v-6.89h-40.49v-12.88h35.08v-6.32h-35.08V7.26h39.59V1h-47.04v44.61Z"/>
  </g>
  <g>
    <polygon class="cls-1" points="288.78 .5 272.17 16.49 267.04 11.37 277.91 .5 288.78 .5"/>
    <path class="cls-1" d="m272.17,17.19l-5.83-5.82,11.37-11.37h12.32l-17.86,17.19Zm-4.42-5.82l4.43,4.42,15.36-14.79h-9.42l-10.37,10.37Z"/>
  </g>
  <g>
    <polygon class="cls-1" points="289.85 46.11 278.19 46.11 260.68 28.15 242.72 46.11 231.79 46.11 255.33 22.85 232.86 .5 244.63 .5 257.36 13.62 261.02 17.39 261.08 17.33 281.85 38.11 281.97 38 289.85 46.11"/>
    <path class="cls-1" d="m291.04,46.61h-13.05l-17.3-17.75-17.75,17.75h-12.35l24.05-23.76L231.65,0h13.19l.15.15,16.07,16.56.38.27,20.43,20.44.12-.11,9.04,9.31Zm-12.63-1h10.27l-6.72-6.91-.12.11-20.76-20.77h0s-.41-.3-.41-.3L244.42,1h-10.35l21.97,21.85-23.03,22.76h9.5l18.17-18.17,17.72,18.17Z"/>
  </g>
  <path class="cls-2" d="m326.79.5h-10.75l-23.21,45.61h9.07l5.29-10.42h28.16l5.4,10.42h9.8L326.79.5Zm-16.39,28.26l10.98-20.89,10.87,20.89h-21.85Z"/>
</svg>