<?xml version="1.0" encoding="UTF-8"?>
<svg id="Layer_1" data-name="Layer 1" xmlns="http://www.w3.org/2000/svg" viewBox="0 0 313.61 189.12">
  <defs>
    <style>
      .cls-1 {
        fill: #fff;
      }
    </style>
  </defs>
  <path class="cls-1" d="m298.01,146.6l-5.03-5.09-7.78-7.73-10.33-10.4-2.49-2.41-12.82-12.82-2.88-2.93-10.02-9.97.03-.03h-.03l10.02-10.04,15.7-15.67,2.49-2.49,10.33-10.33,12.82-12.82,12.84-12.84h-25.64l-.03.03-10.33,10.35-2.49,2.49-15.7,15.67-10.02,10.02-8.12,8.14-4.7,4.68-12.82-12.82v-.03l12.82-12.82,22.84-22.86,2.88-2.85h-25.64l-.03.03-12.87,12.9-.67.64-12.18,12.18-5.93-5.99-6.88-6.83.03-.03h-.03c-8.58-8.55-17.11-17.08-25.66-25.66l-.05-.03-3.75-3.8-9.07-9.02-12.82,12.82-.05.03-12.79,12.79c-4.26,4.26-8.55,8.53-12.82,12.82v.03l-12.82,12.82-12.23-12.18-.59-.64-12.9-12.84-.03-.03h-25.61l21.01,21.04,4.62,4.68,12.82,12.82v.03l-12.82,12.82-4.62-4.68-8.22-8.14-9.97-10.02-18.16-18.16-10.33-10.35-.03-.03H2.83l-.03.03,25.71,25.69,12.82,12.82,12.84,12.82,2.83,2.88,9.97,9.97v.03l-9.97,9.97-2.83,2.85-12.84,12.82-2.49,2.49-10.38,10.4-7.78,7.78-5.06,5.03-12.82,12.82.03.03h25.66l.03-.05.03-.03,10.3-10.35,2.49-2.44,12.84-12.82,2.83-2.9,9.97-9.94,8.22-8.25,4.62-4.62,12.9,12.87-.03.03.03.03-12.9,12.82-25.64,25.66h25.61l.03-.05,12.82-12.82.67-.59,12.23-12.23,12.82,12.82v.03l-6.88,6.91-5.93,5.86-.08.08h25.69l.03-.05.03.05,12.69,12.66,12.95,12.95,12.95-12.95,12.66-12.66.03-.05.05.05h25.74l-.08-.08-5.93-5.86-6.88-6.96.03-.03,12.79-12.82,12.18,12.23.72.64,12.79,12.79.05.08h25.61l-25.64-25.66-12.87-12.9v-.03l12.82-12.82,38.53,38.53,2.49,2.49,10.3,10.3.05.08h25.64l-.08-.08-12.77-12.77Zm-115.47-89.85l12.82,12.82v.03l-12.82,12.82-12.84-12.82v-.03l12.84-12.82Zm-38.53-12.87l12.82-12.84,12.87,12.9v.03l-3.8,3.72-9.02,9.09-12.87-12.87v-.03Zm25.69,51.35v.03l-3.8,3.8-9.02,9.02-9.07-9.02-3.8-3.8v-.03l3.8-3.75,9.07-9.09,9.02,9.09,3.8,3.75Zm-51.35-25.66l11.28-11.33,1.54-1.49,12.84,12.82v.03l-12.84,12.82-1.54-1.54-11.28-11.28v-.03Zm-12.82,38.51l-12.23-12.23-.59-.59v-.03l.59-.67,12.23-12.18,5.93,5.96,6.88,6.88v.03l-12.82,12.82Zm25.64,25.66l-12.82-12.84v-.03l11.28-11.2,1.54-1.62,12.84,12.82v.03l-12.84,12.84Zm38.48,12.87l-3.75,3.75-8.94,9.02-.08.08-.05-.08-9.02-9.02-3.8-3.75v-.03l3.8-3.8,9.02-9.02,9.07,9.02,3.75,3.8h-.03l.03.03Zm25.71-25.71l-12.82,12.84-12.84-12.84v-.03l12.84-12.82,1.54,1.62,11.28,11.2v.03Zm24.99-24.97l-12.18,12.15-12.82-12.82.03-.03,6.86-6.88,5.93-5.96,12.82,12.84.03.03-.67.67Z"/>
</svg>