<?xml version="1.0" encoding="UTF-8"?>
<svg id="Layer_1" data-name="Layer 1" xmlns="http://www.w3.org/2000/svg" viewBox="0 0 715.42 117.68">
  <defs>
    <style>
      .cls-1, .cls-2 {
        fill: #fff;
      }

      .cls-2 {
        stroke: #fff;
        stroke-miterlimit: 10;
      }
    </style>
  </defs>
  <path class="cls-1" d="m193.39,92.49l-3.3-3.33-5.1-5.07-6.77-6.82-1.63-1.58-8.4-8.4-1.88-1.92-6.56-6.53.02-.02h-.02l6.56-6.58,10.28-10.27,1.63-1.63,6.77-6.77,8.4-8.4,8.41-8.41h-16.79l-.02.02-6.77,6.78-1.63,1.63-10.28,10.27-6.56,6.56-5.32,5.33-3.08,3.06-8.4-8.4v-.02l8.4-8.4,14.96-14.98,1.88-1.87h-16.79l-.02.02-8.43,8.45-.44.42-7.98,7.98-3.89-3.92-4.51-4.48.02-.02h-.02c-5.62-5.6-11.21-11.19-16.81-16.81l-.03-.02-2.46-2.49-5.94-5.91-8.4,8.4-.03.02-8.38,8.38c-2.79,2.79-5.6,5.59-8.4,8.4v.02l-8.4,8.4-8.01-7.98-.39-.42-8.45-8.41-.02-.02h-16.78l13.77,13.78,3.03,3.06,8.4,8.4v.02l-8.4,8.4-3.03-3.06-5.39-5.33-6.53-6.56-11.9-11.9-6.77-6.78-.02-.02H.02l-.02.02,16.85,16.83,8.4,8.4,8.41,8.4,1.85,1.88,6.53,6.53v.02l-6.53,6.53-1.85,1.87-8.41,8.4-1.63,1.63-6.8,6.82-5.1,5.1-3.32,3.3L0,100.89l.02.02h16.81l.02-.03.02-.02,6.75-6.78,1.63-1.6,8.41-8.4,1.85-1.9,6.53-6.51,5.39-5.4,3.03-3.03,8.45,8.43-.02.02.02.02-8.45,8.4-16.79,16.81h16.78l.02-.03,8.4-8.4.44-.39,8.01-8.01,8.4,8.4v.02l-4.51,4.53-3.89,3.84-.05.05h16.83l.02-.03.02.03,8.31,8.3,8.48,8.48,8.48-8.48,8.3-8.3.02-.03.03.03h16.86l-.05-.05-3.89-3.84-4.51-4.56.02-.02,8.38-8.4,7.98,8.01.47.42,8.38,8.38.03.05h16.78l-16.79-16.81-8.43-8.45v-.02l8.4-8.4,25.24,25.24,1.63,1.63,6.75,6.75.03.05h16.79l-.05-.05-8.36-8.36Zm-75.64-58.87l8.4,8.4v.02l-8.4,8.4-8.41-8.4v-.02l8.41-8.4Zm-25.24-8.43l8.4-8.41,8.43,8.45v.02l-2.49,2.44-5.91,5.96-8.43-8.43v-.02Zm16.83,33.64v.02l-2.49,2.49-5.91,5.91-5.94-5.91-2.49-2.49v-.02l2.49-2.46,5.94-5.96,5.91,5.96,2.49,2.46Zm-33.64-16.81l7.39-7.42,1.01-.98,8.41,8.4v.02l-8.41,8.4-1.01-1.01-7.39-7.39v-.02Zm-8.4,25.23l-8.01-8.01-.39-.39v-.02l.39-.44,8.01-7.98,3.89,3.9,4.51,4.51v.02l-8.4,8.4Zm16.79,16.81l-8.4-8.41v-.02l7.39-7.34,1.01-1.06,8.41,8.4v.02l-8.41,8.41Zm25.21,8.43l-2.46,2.46-5.86,5.91-.05.05-.03-.05-5.91-5.91-2.49-2.46v-.02l2.49-2.49,5.91-5.91,5.94,5.91,2.46,2.49h-.02l.02.02Zm16.85-16.85l-8.4,8.41-8.41-8.41v-.02l8.41-8.4,1.01,1.06,7.39,7.34v.02Zm16.37-16.36l-7.98,7.96-8.4-8.4.02-.02,4.49-4.51,3.89-3.9,8.4,8.41.02.02-.44.44Z"/>
  <g>
    <g>
      <g>
        <path class="cls-1" d="m264.34,57.31v31.71l-33.45-31.71h-8.4v42.53h8.3v-32.45l33.65,32.45h8.2v-42.53h-8.3Z"/>
        <path class="cls-1" d="m273.1,100.31h-8.85l-.13-.13-32.86-31.69v31.82h-9.23v-43.46h9.05l32.79,31.09v-31.09h9.23v43.46Zm-8.47-.93h7.54v-41.6h-7.37v32.33l-34.1-32.33h-7.75v41.6h7.37v-33.08l34.31,33.08Z"/>
      </g>
      <g>
        <path class="cls-1" d="m288.32,92.48v-11.08h32.71v-6.83h-32.71v-10.5h36.92v-6.77h-44.79v42.53h45.63v-7.36h-37.75Z"/>
        <path class="cls-1" d="m326.54,100.31h-46.57v-43.46h45.73v7.7h-36.91v9.57h32.71v7.76h-32.71v10.14h37.75v8.29Zm-45.63-.93h44.7v-6.42h-37.75v-12.01h32.71v-5.89h-32.71v-11.43h36.91v-5.84h-43.86v41.6Z"/>
      </g>
      <g>
        <path class="cls-1" d="m373.95,57.31l-18.27,34.33-18.49-34.33h-8.87l22.99,42.53h8.3l23.05-42.53h-8.72Z"/>
        <path class="cls-1" d="m359.9,100.31h-8.85l-23.5-43.46h9.93l18.21,33.81,17.99-33.81h9.78l-23.56,43.46Zm-8.3-.93h7.74l22.55-41.6h-7.66l-18.54,34.85-18.77-34.85h-7.81l22.49,41.6Z"/>
      </g>
      <g>
        <path class="cls-1" d="m396.74,92.48v-11.08h32.71v-6.83h-32.71v-10.5h36.92v-6.77h-44.79v42.53h45.63v-7.36h-37.75Z"/>
        <path class="cls-1" d="m434.96,100.31h-46.57v-43.46h45.73v7.7h-36.91v9.57h32.71v7.76h-32.71v10.14h37.75v8.29Zm-45.63-.93h44.7v-6.42h-37.75v-12.01h32.71v-5.89h-32.71v-11.43h36.91v-5.84h-43.86v41.6Z"/>
      </g>
      <g>
        <polygon class="cls-1" points="491.29 57.31 475.81 72.22 471.02 67.45 481.16 57.31 491.29 57.31"/>
        <path class="cls-1" d="m475.8,72.87l-5.44-5.43,10.6-10.6h11.48l-16.65,16.03Zm-4.12-5.43l4.13,4.12,14.33-13.79h-8.79l-9.67,9.67Z"/>
      </g>
      <g>
        <polygon class="cls-1" points="492.29 99.84 481.42 99.84 465.09 83.09 448.35 99.84 438.15 99.84 460.1 78.15 439.15 57.31 450.13 57.31 462 69.55 465.41 73.06 465.47 73 484.83 92.38 484.94 92.28 492.29 99.84"/>
        <path class="cls-1" d="m493.39,100.31h-12.17l-16.13-16.55-16.55,16.55h-11.52l22.42-22.16-21.42-21.31h12.3l.14.14,14.98,15.44.35.25,19.05,19.06.12-.11,8.43,8.68Zm-11.78-.93h9.57l-6.26-6.45-.11.1-19.35-19.36h0s-.38-.28-.38-.28l-15.15-15.61h-9.65l20.48,20.37-21.48,21.22h8.86l16.94-16.94,16.52,16.94Z"/>
      </g>
      <path class="cls-2" d="m526.73,57.31h-10.02l-21.64,42.53h8.46l4.93-9.72h26.26l5.04,9.72h9.14l-22.15-42.53Zm-15.28,26.35l10.24-19.48,10.14,19.48h-20.37Z"/>
    </g>
    <g>
      <path class="cls-1" d="m592.89,80.9c-1.37-3.61-5.54-6.38-11.4-6.38-7.17,0-12.32,4.14-12.32,11.05s4.8,10.83,12.5,10.83c6.03,0,9.51-2.55,11.09-6.03l4.75,2.16c-2.2,5.37-7.79,8.76-15.84,8.76-10.47,0-18.22-5.76-18.22-15.62s8.36-16.02,18.04-16.02c8.05,0,13.95,3.96,16.2,8.8l-4.8,2.46Z"/>
      <path class="cls-1" d="m637.33,100.31h-6.38l-3.52-6.78h-18.35l-3.43,6.78h-5.94l15.14-29.7h7l15.49,29.7Zm-26.14-11.31h14.21l-7.08-13.6-7.13,13.6Z"/>
      <path class="cls-1" d="m675.69,100.31h-7.66l-9.29-11.31h-11.62v11.31h-5.5v-29.7h23.15c7.35,0,11,3.61,11,9.11,0,5.81-4.05,8.76-10.08,9.24l9.99,11.35Zm-28.56-24.78v8.41h16.94c3.78,0,5.94-1.45,5.94-4.27,0-2.64-1.89-4.14-5.28-4.14h-17.6Z"/>
      <path class="cls-1" d="m706.58,78.83c-1.32-3.52-4.27-4.71-10.25-4.71-7,0-10.21,1.63-10.21,4.8,0,3.65,4.18,3.74,10.74,3.83,9.33.13,16.06.62,16.06,8.27,0,6.47-4.75,10.21-17.34,10.21-4.93,0-7.88-.57-10.03-1.5-3.61-1.54-5.63-4.31-5.98-8.36h6.03c.48,3.61,4.93,5.28,11.13,5.28,6.56,0,10.43-1.85,10.43-5.15s-4.14-3.92-9.33-3.92c-1.5,0-1.72.04-3.87.04-4.27,0-13.69-.18-13.69-8.67,0-5.77,4.36-9.33,16.11-9.33,10.52,0,14.43,2.86,15.71,9.02l-5.5.18Z"/>
    </g>
  </g>
</svg>