<?xml version="1.0" encoding="UTF-8"?>
<svg id="Layer_1" data-name="Layer 1" xmlns="http://www.w3.org/2000/svg" viewBox="0 0 493.4 50.18">
  <defs>
    <style>
      .cls-1, .cls-2 {
        fill: #fff;
      }

      .cls-2 {
        stroke: #fff;
        stroke-miterlimit: 10;
      }
    </style>
  </defs>
  <g>
    <g>
      <path class="cls-1" d="m42.31.5v31.71L8.87.5H.47v42.53h8.3V10.58l33.65,32.45h8.2V.5h-8.3Z"/>
      <path class="cls-1" d="m51.08,43.49h-8.85l-.13-.13L9.23,11.68v31.82H0V.03h9.05l32.79,31.09V.03h9.23v43.46Zm-8.47-.93h7.54V.97h-7.37v32.33L8.68.97H.93v41.6h7.37V9.48l34.31,33.08Z"/>
    </g>
    <g>
      <path class="cls-1" d="m66.3,35.67v-11.08h32.71v-6.83h-32.71V7.27h36.92V.5h-44.79v42.53h45.63v-7.36h-37.75Z"/>
      <path class="cls-1" d="m104.52,43.49h-46.57V.03h45.73v7.7h-36.91v9.57h32.71v7.76h-32.71v10.14h37.75v8.29Zm-45.63-.93h44.7v-6.42h-37.75v-12.01h32.71v-5.89h-32.71V6.8h36.91V.97h-43.86v41.6Z"/>
    </g>
    <g>
      <path class="cls-1" d="m151.93.5l-18.27,34.33L115.17.5h-8.87l22.99,42.53h8.3L160.65.5h-8.72Z"/>
      <path class="cls-1" d="m137.88,43.49h-8.85L105.52.03h9.93l18.21,33.81L151.65.03h9.78l-23.56,43.46Zm-8.3-.93h7.74L159.87.97h-7.66l-18.54,34.85L114.9.97h-7.81l22.49,41.6Z"/>
    </g>
    <g>
      <path class="cls-1" d="m174.72,35.67v-11.08h32.71v-6.83h-32.71V7.27h36.92V.5h-44.79v42.53h45.63v-7.36h-37.75Z"/>
      <path class="cls-1" d="m212.94,43.49h-46.57V.03h45.73v7.7h-36.91v9.57h32.71v7.76h-32.71v10.14h37.75v8.29Zm-45.63-.93h44.7v-6.42h-37.75v-12.01h32.71v-5.89h-32.71V6.8h36.91V.97h-43.86v41.6Z"/>
    </g>
    <g>
      <polygon class="cls-1" points="269.27 .5 253.78 15.41 249 10.63 259.14 .5 269.27 .5"/>
      <path class="cls-1" d="m253.78,16.06l-5.44-5.43L258.94.03h11.48l-16.65,16.03Zm-4.12-5.43l4.13,4.12,14.33-13.79h-8.79l-9.67,9.67Z"/>
    </g>
    <g>
      <polygon class="cls-1" points="270.27 43.03 259.4 43.03 243.07 26.28 226.32 43.03 216.13 43.03 238.08 21.34 217.13 .5 228.11 .5 239.98 12.73 243.39 16.25 243.44 16.19 262.81 35.57 262.92 35.47 270.27 43.03"/>
      <path class="cls-1" d="m271.37,43.49h-12.17l-16.13-16.55-16.55,16.55h-11.52l22.42-22.16L216,.03h12.3l.14.14,14.98,15.44.35.25,19.05,19.06.12-.11,8.43,8.68Zm-11.78-.93h9.57l-6.26-6.45-.11.1-19.35-19.36h0s-.38-.28-.38-.28l-15.15-15.61h-9.65l20.48,20.37-21.48,21.22h8.86l16.94-16.94,16.52,16.94Z"/>
    </g>
    <path class="cls-2" d="m304.71.5h-10.02l-21.64,42.53h8.46l4.93-9.72h26.26l5.04,9.72h9.14L304.71.5Zm-15.28,26.35l10.24-19.48,10.14,19.48h-20.37Z"/>
  </g>
  <g>
    <path class="cls-1" d="m370.86,24.09c-1.36-3.61-5.54-6.38-11.4-6.38-7.17,0-12.32,4.14-12.32,11.05s4.8,10.83,12.5,10.83c6.03,0,9.5-2.55,11.09-6.03l4.75,2.16c-2.2,5.37-7.79,8.76-15.84,8.76-10.47,0-18.22-5.76-18.22-15.62s8.36-16.02,18.04-16.02c8.05,0,13.95,3.96,16.19,8.8l-4.8,2.46Z"/>
    <path class="cls-1" d="m415.3,43.49h-6.38l-3.52-6.78h-18.35l-3.43,6.78h-5.94l15.14-29.7h7l15.49,29.7Zm-26.14-11.31h14.21l-7.08-13.6-7.13,13.6Z"/>
    <path class="cls-1" d="m453.67,43.49h-7.66l-9.29-11.31h-11.62v11.31h-5.5V13.79h23.15c7.35,0,11,3.61,11,9.11,0,5.81-4.05,8.76-10.08,9.24l9.99,11.35Zm-28.56-24.78v8.41h16.94c3.78,0,5.94-1.45,5.94-4.27,0-2.64-1.89-4.14-5.28-4.14h-17.6Z"/>
    <path class="cls-1" d="m484.56,22.02c-1.32-3.52-4.27-4.71-10.25-4.71-7,0-10.21,1.63-10.21,4.8,0,3.65,4.18,3.74,10.74,3.83,9.33.13,16.06.62,16.06,8.27,0,6.47-4.75,10.21-17.34,10.21-4.93,0-7.88-.57-10.03-1.5-3.61-1.54-5.63-4.31-5.98-8.36h6.03c.48,3.61,4.93,5.28,11.13,5.28,6.56,0,10.43-1.85,10.43-5.15s-4.14-3.92-9.33-3.92c-1.5,0-1.72.04-3.87.04-4.27,0-13.69-.18-13.69-8.67,0-5.77,4.36-9.33,16.11-9.33,10.52,0,14.43,2.86,15.71,9.02l-5.5.18Z"/>
  </g>
</svg>